2.5Hzlow3min_grf.mot
version=1
nRows=17
nColumns 19
inDegrees=yes
endheader
time	1_ground_force_vx	1_ground_force_vy	1_ground_force_vz	1_ground_force_px	1_ground_force_py	1_ground_force_pz	1_ground_torque_x	1_ground_torque_y	1_ground_torque_z	2_ground_force_vx	2_ground_force_vy	2_ground_force_vz	2_ground_force_px	2_ground_force_py	2_ground_force_pz	2_ground_torque_x	2_ground_torque_y	2_ground_torque_z
            2.502500	           -0.166970	          973.271398	          -83.872242	           -0.231290	            0.006191	           -0.397702	           -0.000597	            3.480820	           -0.299962	          -28.049456	          957.793417	          122.721054	           -0.228432	            0.005663	           -0.698812	            0.076150	           -2.600279	           -0.333171
            2.503000	            0.066779	          967.136450	          -82.523423	           -0.231088	            0.006191	           -0.397711	            0.000230	            3.332542	           -0.284358	          -27.705264	          953.193913	          121.859782	           -0.228312	            0.005663	           -0.698811	            0.076271	           -2.624081	           -0.335472
            2.503500	            0.254081	          962.444331	          -81.305861	           -0.230890	            0.006190	           -0.397629	            0.000785	            2.974681	           -0.251297	          -26.891301	          948.228322	          120.856220	           -0.228267	            0.005663	           -0.698735	            0.080049	           -2.822661	           -0.359762
            2.504000	            0.441319	          956.851246	          -80.183884	           -0.230829	            0.006191	           -0.397645	            0.001276	            2.767436	           -0.231910	          -26.640390	          943.446286	          119.431194	           -0.228005	            0.005664	           -0.698687	            0.080667	           -2.856738	           -0.361635
            2.504500	            1.178025	          949.817592	          -79.436288	           -0.230597	            0.006192	           -0.397893	            0.003472	            2.799536	           -0.234134	          -26.293035	          937.927479	          118.191212	           -0.227865	            0.005664	           -0.698574	            0.079356	           -2.830784	           -0.356716
            2.505000	            2.095890	          943.688994	          -79.510712	           -0.230341	            0.006193	           -0.398104	            0.006606	            2.974174	           -0.250590	          -26.417067	          933.145262	          116.437841	           -0.227705	            0.005664	           -0.698448	            0.075745	           -2.675594	           -0.333861
            2.505500	            2.647446	          939.541841	          -79.254712	           -0.230246	            0.006192	           -0.397921	            0.008842	            3.137801	           -0.264688	          -25.930555	          927.995624	          115.058337	           -0.227669	            0.005664	           -0.698408	            0.073136	           -2.617389	           -0.324519
            2.506000	            3.430010	          933.048888	          -78.459074	           -0.230085	            0.006192	           -0.397849	            0.011666	            3.173510	           -0.266857	          -25.723813	          922.476689	          113.677623	           -0.227406	            0.005665	           -0.698353	            0.071443	           -2.562010	           -0.315719
            2.506500	            3.661237	          927.639132	          -78.070117	           -0.229836	            0.006192	           -0.397935	            0.011522	            2.919359	           -0.245693	          -25.424454	          917.324488	          112.861336	           -0.227281	            0.005665	           -0.698348	            0.074406	           -2.684583	           -0.330293
            2.507000	            3.804064	          921.683086	          -76.399301	           -0.229816	            0.006192	           -0.397985	            0.010928	            2.647748	           -0.219475	          -24.746328	          911.068719	          111.994010	           -0.227221	            0.005665	           -0.698058	            0.074069	           -2.726945	           -0.335212
            2.507500	            3.853189	          915.550388	          -75.554430	           -0.229613	            0.006193	           -0.398103	            0.009951	            2.364330	           -0.195113	          -24.263640	          907.022708	          110.993858	           -0.227038	            0.005666	           -0.698278	            0.076398	           -2.855915	           -0.349483
            2.508000	            4.543693	          909.238304	          -74.895362	           -0.229542	            0.006193	           -0.398276	            0.012481	            2.497586	           -0.205730	          -24.105760	          902.056255	          109.568215	           -0.226942	            0.005667	           -0.698326	            0.073496	           -2.750296	           -0.334065
            2.508500	            5.691974	          904.008627	          -74.416204	           -0.229322	            0.006193	           -0.398162	            0.016950	            2.692069	           -0.221606	          -23.900450	          896.906438	          107.954182	           -0.226790	            0.005667	           -0.698223	            0.068675	           -2.577156	           -0.310194
            2.509000	            6.427816	          898.598378	          -73.890943	           -0.229099	            0.006193	           -0.398054	            0.020556	            2.873698	           -0.236302	          -23.927213	          891.201909	          106.760638	           -0.226596	            0.005667	           -0.698073	            0.067555	           -2.516186	           -0.301424
            2.509500	            6.980302	          892.467350	          -73.414170	           -0.228946	            0.006192	           -0.397980	            0.021783	            2.785025	           -0.229096	          -23.533654	          885.867061	          105.568214	           -0.226586	            0.005666	           -0.697936	            0.066513	           -2.503719	           -0.298367
            2.510000	            7.624377	          886.877106	          -72.935305	           -0.228592	            0.006193	           -0.398116	            0.021982	            2.556994	           -0.210283	          -23.095258	          881.085155	          104.330820	           -0.226501	            0.005667	           -0.698049	            0.068381	           -2.608743	           -0.308906
            2.510500	            7.580986	          880.925940	          -72.410428	           -0.228504	            0.006194	           -0.398313	            0.019619	            2.279751	           -0.187391	          -22.608376	          875.932504	          103.796022	           -0.226246	            0.005668	           -0.698109	            0.068658	           -2.660076	           -0.315213
